<svg xmlns="http://www.w3.org/2000/svg" width="120" height="120" viewBox="0 0 120 120">
    <g fill="none" fill-rule="evenodd">
        <circle cx="60" cy="60" r="59.5" stroke="#1A1919"/>
        <path fill="#1A1919" d="M11.366 36.397a.249.249 0 0 0 .106-.027h.002c.041-.014.087-.06.12-.112.036-.055.071-.108.107-.154.035-.046.072-.087.107-.124a.26.26 0 0 1 .111-.072l.007-.003c.006-.002.01-.004.015-.004a.082.082 0 0 1 .022-.002h-.007l.014-.001.009-.001c.023 0 .052.005.086.017a.705.705 0 0 1 .147.072l.796.496c.17.108.32.2.472.296l.485.302.014.008 1.416.887.01.005.554.349a.07.07 0 0 0 .012.007l.495.319c.23.148.407.267.528.357l.066.049-.01-.009a3 3 0 0 0 .063.05h.001l.002.001h-.002c.056.046.1.086.135.121.034.037.062.07.08.1l.001.003a.123.123 0 0 1 .02.04l.002.012-.003.018-.11.244a.22.22 0 0 0-.03.136v.007c.004.04.016.079.034.119l.015.03.034.04.03.018c.04.022.086.037.134.037h.004c.077 0 .149-.04.205-.1a.788.788 0 0 0 .036-.042c.012-.014.02-.03.031-.045l.006-.01-.006.009.014-.024.462-.787.001-.002 2.138-3.41.13-.191.13-.19.002-.003a12.515 12.515 0 0 0 .264-.404l.06-.094-.012.014.075-.115v-.002a.466.466 0 0 0 .046-.109l.012-.034.003-.014 1.462-2.324.123-.179.143-.211c.055-.081.113-.17.174-.265.064-.097.134-.209.212-.331l-.012.015a.458.458 0 0 0 .085-.208c0-.01 0-.018.002-.03a.247.247 0 0 0-.122-.218l-.026-.016-.048-.014h-.034a.304.304 0 0 0-.087.012.296.296 0 0 0-.11.054l-.023.029c.005-.014-.01.001-.021.019l-.26.342a.23.23 0 0 1-.09.07l.029-.004-.044.008h-.01l-.001-.001a.446.446 0 0 1-.118-.026 1.894 1.894 0 0 1-.213-.088 7.347 7.347 0 0 1-.478-.26l-.12-.072-.126-.077h-.002l-.486-.301-.515-.319-1.428-.893a.048.048 0 0 0-.01-.005l-1.04-.652-.702-.439c-.153-.095-.209-.183-.212-.254-.002-.008 0-.01 0-.01 0-.01 0-.02.003-.035.004-.019.008-.038.017-.058l.1-.208a.325.325 0 0 0 .04-.144v-.01a.246.246 0 0 0-.12-.198.239.239 0 0 0-.19-.033.276.276 0 0 0-.08.031.41.41 0 0 0-.14.147l-.003.003-.006.01-.47.802-.595.897-.004.007a.43.43 0 0 0-.073.19c-.002.01-.002.023-.002.03a.251.251 0 0 0 .12.216l.001.002c.044.025.086.04.134.04a.26.26 0 0 0 .09-.018.297.297 0 0 0 .138-.121c.05-.08.101-.15.154-.212l.03-.035.022-.024a.022.022 0 0 0 .005-.005l.002-.001.008-.01a.3.3 0 0 1 .073-.052.191.191 0 0 1 .076-.02l.013-.025v.024c.024 0 .053.005.086.015a.678.678 0 0 1 .148.073l.324.202.522.327.996.622 1.34.838a46.705 46.705 0 0 1 1.07.68l.003.002c.154.1.285.187.392.262.104.07.178.125.218.16l-.02-.026.149.142-.006.015-.006.011-.003.004-.006.014-1.433 2.28a.07.07 0 0 0-.004.01l-.01.012a.413.413 0 0 1-.04-.02l-.025-.012-.029-.018a.109.109 0 0 0-.011-.006l-.014-.007a8.267 8.267 0 0 1-.635-.35l-.128-.078.003.003c-.176-.11-.337-.208-.492-.304l-.514-.319-1.428-.893c-.238-.15-.506-.316-.82-.512l-.23-.143h.001l-.655-.41-.048-.03-.008-.003c-.146-.095-.202-.181-.204-.252l-.016-.01h.015c0-.011 0-.022.003-.035a.338.338 0 0 1 .016-.056l.1-.212a.28.28 0 0 0 .041-.14v-.019a.246.246 0 0 0-.114-.189l-.003-.002a.254.254 0 0 0-.06-.028l-.028-.004c.001-.006-.026-.008-.05-.008a.252.252 0 0 0-.14.042.436.436 0 0 0-.137.146h.001l-.009.013-.469.8-.533.799-.006.007-.003.006-.012.027a.34.34 0 0 0-.057.156l-.001.029a.25.25 0 0 0 .105.208l-.001-.001.013.009.007.005.005.002.01.006c.034.018.073.03.115.03a.26.26 0 0 0 .103-.024.285.285 0 0 0 .122-.11l.003-.005-.002.004a1.066 1.066 0 0 1 .08-.11h-.001a.44.44 0 0 1 .058-.067l.012-.012.002-.002.006-.005-.005.003.018-.015a.189.189 0 0 1 .14-.063c.058 0 .144.028.249.093l.377.235.418.262.454.283.503.314h.002l1.427.894v-.002.002l.794.501.14.09.132.085.003.002.001.001.011.006c.22.143.392.26.507.345l-.01-.008c.036.027.055.043.07.053.014.013.029.023.043.037l.007.002-.001.001.002.001.118.1-.004.01-.004.007-.003.006-.002.002a.012.012 0 0 0-.002.003l-1.42 2.267-.062-.03-.021-.013-.02-.011.004.002.003.002-.02-.011a6.581 6.581 0 0 1-.343-.18 13.488 13.488 0 0 1-.427-.252c-.148-.09-.312-.192-.486-.3a90.025 90.025 0 0 1-.526-.325l-1.327-.832c-.13-.081-.285-.176-.46-.287-.25-.154-.494-.308-.62-.385l-.008-.005-.542-.34a16.419 16.419 0 0 1-.211-.132l-.046.074.044-.076-.01-.005c-.145-.092-.2-.179-.202-.247v-.01c0-.012.001-.024.004-.036a.207.207 0 0 1 .016-.057l.1-.212v.002l.003-.006a.295.295 0 0 0 .037-.139v-.011a.243.243 0 0 0-.099-.183l-.004-.003-.01-.005-.002-.003a.262.262 0 0 0-.139-.044.259.259 0 0 0-.136.04l-.003.001a.457.457 0 0 0-.142.152l-.004.006-.47.806-.595.893-.005.006a.451.451 0 0 0-.071.19c-.002.01-.002.022-.002.031a.25.25 0 0 0 .114.211c.049.032.092.048.14.048zm46.078-22.91v-.007a.242.242 0 0 0-.111-.176.28.28 0 0 0-.155-.042h-.001l-.046.002h.009l-.018.002-.018.004c-.016 0-.046.004-.07.007-.028.002-.053.004-.079.004h-.016c-.019 0-.042 0-.07-.002l-.006-.001a1.902 1.902 0 0 1-.113-.015h-.013a.34.34 0 0 1-.085-.035 1.037 1.037 0 0 1-.15-.108 1.742 1.742 0 0 1-.254-.274 3.915 3.915 0 0 1-.282-.422c-.208-.365-.396-.691-.56-.983-.182-.322-.36-.638-.53-.947l-.001-.003c-.208-.37-.48-.86-.819-1.474l-.198-.36-.212-.385c-.178-.318-.342-.612-.496-.895l-.096-.175-.095-.176h-.001a5.262 5.262 0 0 0-.103-.182h-.001a.774.774 0 0 0-.086-.123.322.322 0 0 0-.161-.102c-.015-.005-.031-.006-.046-.008-.01-.002-.018 0-.018 0h-.032l-.005.002h-.002.002-.003a.268.268 0 0 0-.153.076.399.399 0 0 0-.077.112c-.021.05-.042.123-.065.23l-.002.02-.011.041-.002.02-.012.05.013-.03-.014.034-1.327 6.195c-.042.196-.09.355-.14.476l-.028.065-.025.05a.52.52 0 0 1-.218.22h-.002a.28.28 0 0 1-.055.024l.033-.006-.09.026-.256.034h.01a.318.318 0 0 0-.175.071.232.232 0 0 0-.08.218v-.01a.254.254 0 0 0 .199.225.448.448 0 0 0 .108.011.86.86 0 0 0 .105-.007l.27-.048.28-.047h-.015l.287-.046c.076-.013.154-.024.234-.036l.747-.075c.123-.018.217-.06.27-.144v.001a.254.254 0 0 0 .033-.076c.004-.022.007-.04.007-.064v-.01l-.001-.018-.001-.002v-.003l-.002-.009a.236.236 0 0 0-.146-.184.286.286 0 0 0-.154-.021l-.01.001h-.003l-.1.014a.496.496 0 0 1-.05.003.286.286 0 0 1-.067-.007l-.02-.006-.007-.003-.005-.003h-.003l-.001-.002c-.014-.006-.019-.012-.02-.012l-.003-.001.001-.002s-.005-.009-.007-.025a1.006 1.006 0 0 1-.01-.15c0-.07.006-.148.017-.233a1.99 1.99 0 0 1 .014-.094c.006-.035.012-.068.02-.098l-.008.02.01-.032v-.017l.436-2.246v.01l.416-2.337 1.095 2.113.017.022.22.421-.007-.018 1.215 2.22.003.004.004.01c0 .005.002.009.003.013a.276.276 0 0 0-.051.05.245.245 0 0 0-.062.157c0 .017.003.03.005.041v.004c.016.12.132.196.254.2a.63.63 0 0 0 .06.004c.056 0 .122-.007.198-.016l1.49-.18.017-.002c.113-.016.213-.05.278-.127v-.002h.001a.278.278 0 0 0 .045-.077.269.269 0 0 0 .011-.08l.002-.01-.002-.01v-.005zm-15.088 1.555c0 .082-.005.166-.015.249l-.002.006v.01a2.15 2.15 0 0 1-.529 1.205l-.017.03a2.425 2.425 0 0 1-.785.577 2.666 2.666 0 0 1-1.125.262h-.004c-.37 0-.744-.083-1.122-.253-.549-.247-1.015-.65-1.399-1.209a4.543 4.543 0 0 1-.217-.346 5.777 5.777 0 0 1-.197-.386l-.001-.004a4.008 4.008 0 0 1-.375-1.249 2.49 2.49 0 0 1 .105-1.08c.153-.452.43-.824.837-1.122.08-.059.166-.115.254-.166.089-.051.184-.101.286-.15l-.016.007a2.523 2.523 0 0 1 1.042-.25c.01-.003.02-.003.033-.003.332 0 .668.072 1.01.216.544.23 1.007.62 1.39 1.175a4.817 4.817 0 0 1 .414.73l.001.002h.001c.249.536.39 1.033.424 1.488.005.074.007.148.007.218v.043zm.824-2.103a5.09 5.09 0 0 0-.176-.434l-.005-.007a4.092 4.092 0 0 0-.907-1.288 3.304 3.304 0 0 0-1.276-.742 3.69 3.69 0 0 0-1.477-.16 4.582 4.582 0 0 0-1.528.43c-.825.382-1.438.926-1.824 1.626l-.001.002a3.872 3.872 0 0 0-.35.883v.002l-.002.022a3.973 3.973 0 0 0-.122 1.37c.04.455.161.9.364 1.333.215.464.486.865.811 1.202.326.337.707.61 1.14.815a3.504 3.504 0 0 0 2.295.254c.155-.033.312-.078.47-.133.158-.053.315-.117.475-.19l.026-.011a4.162 4.162 0 0 0 1.339-.958c.356-.39.622-.851.794-1.377.135-.413.204-.828.204-1.245 0-.32-.04-.64-.12-.961a4.113 4.113 0 0 0-.13-.433zM29.592 24.561l-.043-.03-.033-.01a.384.384 0 0 0-.116-.02.25.25 0 0 0-.145.045l-.313.196a.23.23 0 0 1-.108.036H28.816a.663.663 0 0 1-.18-.126l-.049-.045a3.487 3.487 0 0 1-.048-.047l-.004-.006-.012-.01a6.754 6.754 0 0 1-.35-.398l-.088-.109c-.041-.05-.07-.085-.092-.115l-.003-.002-.353-.447-.373-.475-.285-.364a73.977 73.977 0 0 0 1.731.293 44.89 44.89 0 0 0 1.681.238l.194.02c.06.005.108.009.148.01h.037l.228.003.16-.001.076-.003h-.001l.062-.002-.004.002.032-.003c.158-.012.305-.04.444-.084.142-.046.274-.108.398-.186.02-.011.043-.027.068-.042a2.82 2.82 0 0 0 .082-.057 4.155 4.155 0 0 0 .189-.14l.21-.163v-.002l.379-.294.01-.007.002-.003.02-.027a.414.414 0 0 0 .133-.13.295.295 0 0 0 .047-.153.242.242 0 0 0-.05-.146l-.007-.008a.233.233 0 0 0-.247-.08.416.416 0 0 0-.158.08l-.006.006a1.677 1.677 0 0 1-.395.202h-.001l-.043.016a.028.028 0 0 0-.009.004l-.016.005-.008.002a2.35 2.35 0 0 1-.665.084c-.05 0-.099 0-.15-.002l-.004-.001a8.936 8.936 0 0 1-.307-.022h-.007l-.592-.05h-.014a34.365 34.365 0 0 1-.643-.077l-.208-.028-.234-.03h-.012l-.01-.003-1.002-.131a36.407 36.407 0 0 1-.596-.086h-.006a72.514 72.514 0 0 1-.821-.12c.009-.109.025-.257.048-.446.04-.331.098-.771.171-1.32l.001-.011c.043-.313.078-.577.107-.779l.013-.092a.063.063 0 0 0 .003-.013l.01-.077.003-.012v-.012l.043-.34h-.001v-.002l.03-.223v-.003c.02-.12.05-.234.084-.34.034-.104.075-.2.123-.29l.01-.025a1.52 1.52 0 0 1 .245-.326l.04-.034.004-.002a.324.324 0 0 0 .11-.152.254.254 0 0 0-.043-.233l-.007-.008.005.006-.032-.028c-.02-.034-.09-.068-.16-.067a.322.322 0 0 0-.066.008.429.429 0 0 0-.167.087l-.008.007.003-.002-.005.003-.703.582-.576.413-.006.005-.008.008-.009.007a.349.349 0 0 0-.101.134l-.005.008a.247.247 0 0 0 .038.238l.001.002h.002v.001c.046.06.121.092.198.09h.021a.575.575 0 0 0 .105-.017c0 .002.005.009.012.019 0-.005.002.005.006.043l.005.035v-.006l.002.044v-.004l.002.017v.042c0 .047-.002.108-.007.182a11.345 11.345 0 0 1-.033.363l-.093.855-.017.149-.001.004v.011l-.07.677-.07.684-.046.393-.078-.1-.183-.235-.577-.74-.004-.003c-.218-.28-.367-.472-.447-.572l-.039-.05-.02-.026.003.005-.013-.015a.468.468 0 0 1-.108-.236l-.002-.013c.002-.049.02-.096.068-.152l.164-.159a.3.3 0 0 0 .1-.144l.002-.005a.238.238 0 0 0-.043-.212l-.001-.001-.003-.004-.002-.002a.255.255 0 0 0-.195-.1.343.343 0 0 0-.147.04.368.368 0 0 0-.046.027h-.002l-.045.032h-.001l-.004.003-.012.01-.71.59c-.12.083-.228.16-.345.245l-.017.012h-.002c-.097.071-.21.155-.337.253l-.075.057.031-.016-.11.077-.006.005a.458.458 0 0 0-.132.155.255.255 0 0 0-.028.115c0 .057.022.11.055.154l.004.004a.24.24 0 0 0 .192.095h.005a.295.295 0 0 0 .174-.066c.052-.04.103-.078.151-.109.048-.03.096-.057.144-.08l.012-.006a.273.273 0 0 1 .108-.024h.01a.13.13 0 0 1 .02.002c.007.001.015.002.023.005h.002l.003.003h.004a.33.33 0 0 1 .127.086l.033.035c.008.008.018.021.033.04l.004.005.005.006.261.335.309.395.006-.005v.001l-.005.005.057.073.638.816 1.036 1.326a61.079 61.079 0 0 1 .582.753l.087.113.007.01.098.129v.002c.167.22.29.391.373.514l.046.07.034.055.014.017c.038.068.073.142.096.203l-.006-.028a.902.902 0 0 0 .025.091l-.002-.017.005.026.002.03c0 .013-.002.021-.003.026l-.003.006-.003.005-.006.005-.186.188a.26.26 0 0 0-.072.119v.002a.323.323 0 0 0-.013.084v.005l.002.02v.013l.003.036.018.046.02.027a.25.25 0 0 0 .196.101h.003a.363.363 0 0 0 .143-.036.44.44 0 0 0 .095-.06l-.012.009.017-.012.009-.007.7-.582.086-.06.28-.2v-.001l.001-.001v-.002h.001a7.16 7.16 0 0 0 .237-.174l.281-.216a.456.456 0 0 0 .135-.154.3.3 0 0 0 .029-.12.255.255 0 0 0-.055-.154l-.022-.028zM6.58 53.837v-.01c.007-.045.02-.117.04-.204.021-.09.049-.193.084-.31.034-.118.065-.214.088-.288l.03-.083 2.864.354a.477.477 0 0 1 .08.064c.019.02.019.027.021.027a.411.411 0 0 1 .008.092v.022a2.465 2.465 0 0 1-.018.234c-.03.242-.1.454-.211.64-.109.186-.26.35-.456.493a1.774 1.774 0 0 1-.958.337c-.047.002-.094.005-.142.005l-.075-.001a2.546 2.546 0 0 1-.231-.018v-.002a1.7 1.7 0 0 1-.634-.19.938.938 0 0 1-.366-.364 1.07 1.07 0 0 1-.12-.356 1.339 1.339 0 0 1-.018-.22c0-.07.004-.145.014-.222zm-.577 1.009c.028.101.055.179.088.259.03.076.065.151.105.224l.002.006.016.02c.152.296.378.549.658.733a2.284 2.284 0 0 0 1.196.358 1.932 1.932 0 0 0 .84-.196c.06-.027.118-.056.173-.086l.005-.003a2.426 2.426 0 0 0 .852-.78 23.027 23.027 0 0 1 1.63 1.324c.166.153.32.297.454.436.097.118.184.237.254.353.07.115.123.225.162.33l.021.032c.012.054.034.142.047.23l.007.058.004.056v.04l.001.066c0 .063-.002.114-.005.15l-.002.025-.001.008v-.001l-.004.01-.002.024c-.005.008 0 .017-.001.018 0 .043.012.085.032.123a.52.52 0 0 0 .057.087l.03.037.06.033.047.004h.009l.012-.003v.003H12.758a.256.256 0 0 0 .227-.157.705.705 0 0 0 .056-.21l-.009.026.012-.05.074-.596c.024-.194.038-.357.041-.492v-.05V57.267l-.002-.071.001.003-.001-.014a1.573 1.573 0 0 0-.106-.48l-.012-.022a2.586 2.586 0 0 0-.23-.35 4.228 4.228 0 0 0-.32-.366v-.001a9.18 9.18 0 0 0-.357-.337 22.382 22.382 0 0 0-.514-.444l-.005-.005-1.16-.923.106-.854.11.013.661.084c.2.026.399.054.599.082h.012c.254.038.465.071.615.1l.08.016.057.014.007.002h.002c.066.017.124.036.17.056.044.018.08.04.108.06a.1.1 0 0 1 .033.042.253.253 0 0 1 .018.087l-.015.423v.006c-.005 0 0 .009 0 .01a.254.254 0 0 0 .042.14c.02.031.043.057.073.082l.026.024.05.022.036.002h.001l.013.001.01-.049v.048a.252.252 0 0 0 .216-.116l.006-.01a.414.414 0 0 0 .057-.176l.002-.009.001-.017.03-.316.029-.296v-.016l.03-.292.027-.234.138-.885.001-.003.002-.023v-.012a.385.385 0 0 0-.017-.173.25.25 0 0 0-.197-.17l-.005-.002h-.004l-.038-.006-.051.009-.031.015a.384.384 0 0 0-.1.07l.025-.017c-.06.054-.085.098-.094.15l-.07.264c-.006.016-.018.03-.05.043l-.027.01.023-.004-.056.01h.007l-.05.003-.03.003h-.034l-.191.001h-.028c-.042 0-.094 0-.153-.003l-.052-.002-.27-.02c-.095-.009-.206-.02-.334-.036-.174-.02-.364-.042-.569-.068-.187-.02-.386-.046-.6-.072l-1.672-.206-.946-.116-.278-.034-.011-.001-.819-.102c-.115-.014-.19-.049-.236-.094-.043-.043-.073-.109-.08-.211l-.002-.008a.454.454 0 0 1-.004-.074v-.039c.003-.047.008-.105.016-.174v-.003.006c.001-.03.001-.035.003-.048a.276.276 0 0 0-.034-.134.238.238 0 0 0-.173-.12h.002l-.01-.003-.015.087.007-.087-.005-.001H6.55c-.006-.003-.015-.003-.02-.003h-.004a.255.255 0 0 0-.215.12h.001a.426.426 0 0 0-.059.172l-.006.026v.012l-.105 1.064c-.054.264-.085.422-.114.572l-.021.11-.002.011v.002-.008.01a7.766 7.766 0 0 0-.073.394v.013l-.009.05-.001.015-.006.046-.002.003v.006c-.02.16-.03.32-.03.474 0 .31.041.603.124.876l-.005-.025zm4.032 12.522l.193 1.377-2.131-.378 1.938-1zm2.675 2.791l.01.001c.132.03.247.061.346.095.097.032.174.066.236.098a.523.523 0 0 1 .263.33l.036.257v.004l.002.013a.292.292 0 0 0 .07.149c.044.05.11.08.175.08h.031l.011-.003-.004.001.009-.001.009-.001.006-.001a.25.25 0 0 0 .193-.195.41.41 0 0 0 .014-.111.779.779 0 0 0-.005-.087l-.01-.03.008.014-.048-.269-.05-.28-.044-.271c-.012-.076-.025-.16-.037-.247l-.074-.735-.001-.007a.423.423 0 0 0-.071-.192.246.246 0 0 0-.251-.106.239.239 0 0 0-.197.169.28.28 0 0 0-.014.093l.001.018.001.032.003.01.012.087a.68.68 0 0 1 .004.056c0 .013 0 .026-.002.037a.336.336 0 0 1-.017.06l-.004.01c-.01.014-.014.017-.017.018l-.014.004-.009.002.004-.001a1.182 1.182 0 0 1-.258.006 2.611 2.611 0 0 1-.332-.047l.009.003-1.71-.326L10.727 67l2.137-1.17.008-.003.016-.002.005-.002.014.015c.03.028.058.051.09.068l.007.004.01.003.004.002.024.009.008.001.005.001c.021.004.033.006.051.006H13.133c.15-.022.219-.166.213-.319l-.001-.028a1.365 1.365 0 0 0-.014-.151l-.002-.015-.18-1.488v-.001a.62.62 0 0 0-.063-.214.254.254 0 0 0-.265-.135.242.242 0 0 0-.209.217v.013a.126.126 0 0 0-.002.05c0 .008 0 .018.002.029v-.007.017l.003.015a1.577 1.577 0 0 1 .014.153v.018a1.262 1.262 0 0 1-.018.184l.001-.002a.423.423 0 0 1-.073.158l-.005.01a1.758 1.758 0 0 0-.025.033 1.017 1.017 0 0 0-.034.044l-.007.007c-.068.08-.16.165-.275.253a4.32 4.32 0 0 1-.427.284c-.302.174-.632.36-.981.556a276.533 276.533 0 0 1-2.427 1.347l-.361.2-.38.208-.002.001c-.32.178-.617.342-.9.497l-.177.095-.175.096-.007.005c-.068.036-.13.07-.178.1a.81.81 0 0 0-.12.083.318.318 0 0 0-.102.159l-.003.008c-.001.007-.005.021-.006.036v.01c-.002.003-.001.016-.001.02l.001.017v.008l.001.005.002.01a.276.276 0 0 0 .073.145h.001v.001c.03.032.068.057.11.076h.002c.054.023.125.042.231.065l.02.002.043.012h-.003l.072.014.02.002-.015-.001 6.205 1.325zm6.217 15.4l-.03.006c.047-.012.068-.018.09-.026l.035-.021-.033.02c.046-.013.09-.027.132-.036l.044-.01.034-.006.008-.002a.8.8 0 0 1 .089-.007c.034 0 .052.008.061.014l.01.009.001.004.143.224a.27.27 0 0 0 .15.12l.03.008.019.004.013.003.014.001h-.01l.044.005.045-.006.028-.013a.327.327 0 0 0 .07-.047.263.263 0 0 0 .081-.187l-.054-.007h.054c0-.05-.012-.101-.033-.153l-.003-.007c-.002-.008-.01-.021-.014-.032l-.01-.018-.411-.822-1.701-3.646-.123-.292-.028-.067-.029-.068-.002.002v-.009l-.001-.002a25.497 25.497 0 0 0-.29-.642l-.002-.005a.504.504 0 0 0-.072-.104l-.005-.006-.01-.013-.007-.005-.003-.005-1.157-2.49-.103-.248-.078-.183.003.005-.005-.013c-.05-.117-.115-.263-.193-.433l-.046-.1-.018-.027-.026-.064-.004-.01v0a.046.046 0 0 0-.005-.012v-.001a.45.45 0 0 0-.12-.162l-.015-.01a.238.238 0 0 0-.256-.026l-.03.013-.04.036-.018.03a.34.34 0 0 0-.052.167c0 .034.007.07.02.101l.143.392c.009.033.014.062.013.085l-.001.027-.001.015c0-.008-.003 0-.004.002l-.009.013v.002a.427.427 0 0 1-.085.081c-.047.04-.11.084-.19.13l-.018.014a7.68 7.68 0 0 1-.461.245l-.007.004-.105.052-.01.004-.131.063h-.002c-.173.083-.345.164-.523.247l-.547.256-1.528.71-.001.001c-.168.076-.444.205-.759.351l-.36.169h-.004l-.529.247-.222.104a.585.585 0 0 1-.23.062.188.188 0 0 1-.136-.052.201.201 0 0 1-.037-.043h-.001l-.12-.195a.275.275 0 0 0-.113-.122.242.242 0 0 0-.119-.034c-.036 0-.07.01-.1.023a.254.254 0 0 0-.158.234h.001v.008c0 .06.018.124.047.192l.001.001.426.842.424.98v.002c.034.07.07.123.118.164l.007.006-.007-.006a.274.274 0 0 0 .17.065.283.283 0 0 0 .105-.021l.007-.004a.241.241 0 0 0 .143-.222v-.031a.295.295 0 0 0-.026-.09l-.003-.006-.007-.014a1.735 1.735 0 0 1-.089-.234l-.002-.006-.01-.04-.012-.044a.314.314 0 0 1-.008-.07c0-.023.003-.042.008-.061l.003-.022c-.001.017.002.008.006-.002 0-.003.002-.007.004-.01l.002-.005.003-.004.002-.004a.253.253 0 0 1 .065-.07.684.684 0 0 1 .14-.084l.908-.423.88-.409.181-.084.004-.002 1.43-.662.003-.003.603-.278.55-.248-.034.007c.282-.117.474-.197.603-.246l.07-.023a.607.607 0 0 1 .051-.018h.002a2.05 2.05 0 0 1 .143-.04l.023-.005a.12.12 0 0 1 .018.03l1.143 2.452.001.004.009.02a.419.419 0 0 1-.04.025l-.025.015-.032.015h-.002l-.014.008c-.098.06-.21.123-.338.19a20.09 20.09 0 0 1-.444.22c-.262.125-.513.242-.752.354l-.154.073-.156.072-.014.008-1.516.702-.503.234-.621.29-.752.349a.603.603 0 0 1-.23.06.39.39 0 0 1-.038 0c-.052-.01-.093-.035-.137-.094l-.12-.198a.273.273 0 0 0-.115-.121.232.232 0 0 0-.116-.03.245.245 0 0 0-.11.026l-.001.001a.25.25 0 0 0-.146.222l-.001.013c0 .064.019.128.05.195l.006.01.416.826.38.881v.002c.034.073.072.13.124.172h.002c.046.036.1.06.16.06.034 0 .07-.01.102-.024.083-.038.137-.101.15-.178l.001-.009v-.005l.002-.035a.302.302 0 0 0-.03-.13 2.557 2.557 0 0 1-.047-.125l.004.027a1.042 1.042 0 0 1-.028-.108l-.002-.005v-.004l-.004-.018v-.002l-.002-.019a.188.188 0 0 1-.006-.05c.001-.059.022-.108.086-.162a.638.638 0 0 1 .152-.093v-.002l.004-.001.4-.187h.003l.447-.207.186-.086.837-.39.012-.008 1.517-.702h.002c.31-.146.594-.276.852-.391l.153-.07.147-.065-.03.006.038-.01.003-.001c.238-.107.43-.187.565-.238l-.03.005c.062-.017.084-.025.099-.03l.008-.003.043-.014.004-.001h.002l.025-.012c.044-.01.095-.025.126-.033l.006-.002c.005.007.01.017.013.025l-.006-.028h.002l1.136 2.453-.03.02-.066.036h-.002l-.017.01a6.109 6.109 0 0 1-.338.188c-.13.067-.278.142-.443.22l-.2.095c-.273.128-.56.263-.862.403l-.014.01-1.421.657-1.154.537-.437.202-.378.177-.014.007a.63.63 0 0 1-.219.055.192.192 0 0 1-.098-.023.207.207 0 0 1-.036-.026.28.28 0 0 1-.039-.045l-.002-.003-.12-.196a.279.279 0 0 0-.11-.12l-.004-.001a.218.218 0 0 0-.114-.03.25.25 0 0 0-.109.025.25.25 0 0 0-.151.23v.008c0 .063.019.126.05.192l.003.006.422.839.425.98.001.003a.456.456 0 0 0 .123.168h.002v.001a.261.261 0 0 0 .16.059.243.243 0 0 0 .111-.027.239.239 0 0 0 .14-.173l.002-.018a.321.321 0 0 0-.026-.16l-.011-.018a3.48 3.48 0 0 1-.061-.157 1.375 1.375 0 0 1-.046-.156l-.009-.023v-.052c0-.021.003-.041.008-.06l.003-.025c-.001.017.002.01.005 0a.114.114 0 0 0 .008-.016.11.11 0 0 0 .007-.015l.004-.01c.003 0 .024-.026.057-.051a.64.64 0 0 1 .14-.085l.448-.207.401-.187-.002.001.58-.27h.002l.44-.205a.02.02 0 0 1 .007-.002l1.526-.71h.003c.313-.146.597-.276.852-.391l.154-.069.148-.066.002-.001.01-.006c.24-.105.433-.187.575-.24l.079-.03zm7.62 7.762a5.168 5.168 0 0 0-.273-.43 7.224 7.224 0 0 0-1.05-1.182c-.122-.111-.25-.222-.386-.332h-.002a5.61 5.61 0 0 0-.368-.277 2.21 2.21 0 0 0-.308-.179l-.005-.002a1.224 1.224 0 0 0-.15-.05H24l-.02-.006.014.005a.417.417 0 0 0-.086-.014l-.01-.002h-.013a.43.43 0 0 0-.159.037 1.479 1.479 0 0 0-.16.076l.006-.003a4.505 4.505 0 0 0-.374.232l-.013.011-.08.052-.002.001-.1.07h-.001c-.134.094-.233.163-.302.214-.078.058-.13.098-.16.127l.06.064-.077-.04.009-.016-.01.011a.398.398 0 0 0-.098.146.245.245 0 0 0 .047.252v.001l.01.01.007.007a.248.248 0 0 0 .17.067.349.349 0 0 0 .145-.033l.008-.002a2.42 2.42 0 0 1 .043-.023l.047-.027v-.002l.004-.002.002-.001a1.68 1.68 0 0 1 .14-.081c.063-.03.13-.062.206-.094l-.032.007a1.523 1.523 0 0 1 .316-.089h-.01l.05-.003h-.003l.038-.002a1.225 1.225 0 0 1 .634.184l.012.006c.146.094.31.227.49.395l.11.105.114.116-.008-.01.01.012c.33.341.57.71.721 1.106a3.07 3.07 0 0 1 .194 1.28c-.023.442-.12.849-.292 1.223a3.39 3.39 0 0 1-.742 1.028c-.338.324-.67.575-.991.751a2.472 2.472 0 0 1-.932.307 2.141 2.141 0 0 1-1.099-.194c-.373-.172-.751-.453-1.13-.845a4.13 4.13 0 0 1-.537-.674 2.315 2.315 0 0 1-.283-.635 1.425 1.425 0 0 1-.048-.353 1.003 1.003 0 0 1 .225-.645c.037-.047.078-.092.123-.136l.003-.003.017-.023a.454.454 0 0 0 .118-.152h-.001l.002-.002a.302.302 0 0 0 .03-.125.242.242 0 0 0-.066-.163.243.243 0 0 0-.18-.08c-.018 0-.033.003-.05.006a.452.452 0 0 0-.175.08v-.001c-.06.045-.14.113-.245.21l-.02.026-.042.031-.019.025-.048.04-.006.005-.008.008c-.07.068-.138.13-.202.188-.066.06-.135.12-.208.181-.07.06-.14.115-.207.17l-.211.166-.007.006-.006.007a.289.289 0 0 0-.097.214c0 .075.032.147.082.205l.008.007.002.004.351.484.35.486a7.818 7.818 0 0 0 .764.918c.71.735 1.465 1.196 2.262 1.375a3.586 3.586 0 0 0 .954.08h-.004l.021-.003a3.592 3.592 0 0 0 1.809-.596 3.988 3.988 0 0 0 .618-.496l.008-.006a4.51 4.51 0 0 0 .983-1.332c.22-.474.332-.972.332-1.489v-.004l-.046-.007.046.001c0-.664-.185-1.32-.55-1.96zm12.058 9.872a.898.898 0 0 1-.088.227c-.003.002-.004.005-.006.008l-.04.076a3.49 3.49 0 0 1-.047.08l-.003.008-1.036 1.79-.111.19v.003a.273.273 0 0 1-.066.082.385.385 0 0 1-.074-.022 1.75 1.75 0 0 1-.233-.116v-.001c-.384-.222-.635-.502-.767-.84l.005.03c-.03-.097-.052-.166-.067-.238a1.795 1.795 0 0 1-.047-.434c0-.155.016-.307.051-.458a2.377 2.377 0 0 1 .26-.646c.11-.188.233-.33.37-.428a.94.94 0 0 1 .453-.173h-.01a1.12 1.12 0 0 1 .385.02 1.398 1.398 0 0 1 .387.154c.067.038.142.088.226.148l.051.039.053.04.024.014c.04.036.095.083.14.127h.002a.848.848 0 0 1 .102.122.455.455 0 0 1 .085.174c0 .008.002.014 0 .016v.008zm1.801-.025h-.002l-.01-.008-.824-.441-1.063-.681-.01-.006c-.503-.292-1.002-.44-1.488-.44-.002 0-.014-.001-.034.005a1.47 1.47 0 0 0-.257.015 2.02 2.02 0 0 0-.284.052l-.011.003a2.137 2.137 0 0 0-.779.366c-.227.171-.419.39-.572.657-.17.295-.273.596-.301.899a2.019 2.019 0 0 0 .134.91c.166.423.438.791.81 1.098a3.432 3.432 0 0 0 .469.323l.006.002.004.004.002.001.26.15a3.122 3.122 0 0 1 .283.18l.02.01c.028.02.055.041.079.06l-1.102 1.902c-.089.152-.174.214-.243.222H35.44a.352.352 0 0 1-.05-.014l-.205-.088a.28.28 0 0 0-.134-.034c-.012 0-.023 0-.036.002a.235.235 0 0 0-.17.111l-.002.001-.005.008-.005.007a.246.246 0 0 0-.035.128.29.29 0 0 0 .11.212c.015.013.03.025.045.035.013.011.03.02.047.03h.002v.001h.001l.004.001v.001l.823.444.81.5.027.015v-.001a.408.408 0 0 0 .173.055h.017a.248.248 0 0 0 .202-.095l.007-.007.01-.016.002-.002a.238.238 0 0 0 .019-.23l-.002-.005a.28.28 0 0 0-.121-.127l-.049-.032h-.002v-.001c-.02-.012-.04-.028-.062-.043a1.389 1.389 0 0 1-.099-.08l-.022-.02-.017-.016c-.013-.018-.027-.034-.033-.049a.342.342 0 0 1-.025-.092c-.001-.01-.003-.016-.003-.025a.336.336 0 0 1 .03-.125.52.52 0 0 1 .039-.084h.001l.003-.007.238-.411.253-.433v-.005l.518-.893.027-.046-.001-.001.844-1.457.337-.574c.109-.184.211-.357.308-.518.139-.231.253-.41.34-.54v-.002l.046-.064.038-.052v-.001c.042-.056.083-.104.12-.141a.83.83 0 0 1 .098-.086c.028-.02.045-.024.055-.024v-.001h.003l.01.002.01.001-.002.001.243.102a.238.238 0 0 0 .108.024l.03-.001h-.005a.356.356 0 0 0 .13-.037l.029-.015.051-.06.02-.04v-.003c.002 0 .002-.002.002-.003a.26.26 0 0 0-.03-.229.43.43 0 0 0-.151-.134zm-5.596-2.17c.043-.055.084-.104.122-.143.03-.031.06-.058.087-.079l.011-.007c.025-.019.042-.023.052-.023l.004.001.01.001.01.003.243.101c.031.016.07.025.112.025a.353.353 0 0 0 .107-.022l.008-.003.015-.007h.001l.016-.007.03-.015.052-.061a.276.276 0 0 0 .037-.132.255.255 0 0 0-.038-.131c-.002-.004-.003-.007-.006-.01a.442.442 0 0 0-.142-.126l-.018-.014.004.002-.828-.446a11.387 11.387 0 0 0-.18-.114l-.216-.135a18.237 18.237 0 0 0-.41-.249l-.096-.055h-.002l-.096-.057a.47.47 0 0 0-.202-.07c0-.005-.006-.004-.012-.002h-.007a.247.247 0 0 0-.224.133l-.016.028-.011.047v.032c.003.038.01.076.024.11a.257.257 0 0 0 .095.124l.003.002.353.249a.302.302 0 0 1 .065.071h.001c.008.016.01.028.01.037v.002a.496.496 0 0 1-.022.12 1.825 1.825 0 0 1-.08.22l-.004.006a7.46 7.46 0 0 1-.24.475l-.14.252-.002.003v.001a.068.068 0 0 0-.005.014c-.086.145-.174.3-.278.479l-.3.523-1.273 2.198-.19.329-.006.007-.288.498a21.25 21.25 0 0 0-.124.215c-.087.15-.17.21-.242.217h-.053a.356.356 0 0 1-.055-.016l-.215-.093.002.001.022.016a.29.29 0 0 0-.16-.052.239.239 0 0 0-.202.11l-.006.014.002-.005-.006.009-.004.009-.004.007-.006.012v-.001a.248.248 0 0 0 .025.245.443.443 0 0 0 .151.134l.006.004.01.005.821.44.813.504.007.003a.454.454 0 0 0 .212.065.257.257 0 0 0 .209-.103l.006-.01.001-.001.008-.013a.27.27 0 0 0 .035-.129.249.249 0 0 0-.019-.092l-.02-.03c-.005-.029-.051-.074-.105-.105l.003.002a2.266 2.266 0 0 1-.077-.048l-.02-.015-.016-.011h.001a1.366 1.366 0 0 1-.057-.044l-.032-.031-.013-.013a.194.194 0 0 1-.069-.138l-.012-.008h.012a.506.506 0 0 1 .084-.243v-.003l.256-.44.212-.367.002-.001.004-.007.563-.97.841-1.456.338-.576c.107-.183.21-.357.308-.518.136-.226.247-.403.33-.528l.008-.01.047-.067c.011-.017.024-.035.038-.052zm15.277 6.25c0 .045-.007.12-.022.217a6.611 6.611 0 0 1-.091.451l-.498 2.143c-.014-.002-.029-.006-.045-.01-.079-.015-.187-.04-.324-.07a2.708 2.708 0 0 1-.26-.076 1.565 1.565 0 0 1-.204-.084 1.293 1.293 0 0 1-.176-.117c-.062-.05-.129-.11-.195-.179a1.843 1.843 0 0 1-.43-.824 3.691 3.691 0 0 1-.033-.16 2.473 2.473 0 0 1-.007-.65l.02-.13c.01-.049.017-.093.027-.134l.003-.013c.07-.302.197-.523.373-.673a.99.99 0 0 1 .234-.144l.015-.007-.01.005a1.09 1.09 0 0 1 .449-.093c.104 0 .211.014.326.04.048.01.106.028.17.047.071.023.142.048.213.074.072.027.138.055.192.084.053.03.1.059.136.086l.015.011a.34.34 0 0 1 .114.144c0 .004.003.009.004.014v.003a.05.05 0 0 1 .003.02v-.006l.001.017v.015zm-1.305 5.807c-.04 0-.078-.001-.111-.004l-.054-.004-.08-.014a5.642 5.642 0 0 1-.135-.029 1.034 1.034 0 0 1-.45-.216.932.932 0 0 1-.267-.397l.006.029a1.621 1.621 0 0 1-.085-.72c.005-.055.012-.11.02-.16v-.013c.009-.039.018-.093.03-.146l.002-.007.006-.028c.028-.121.068-.231.12-.33l.031-.054a1.325 1.325 0 0 1 .234-.286l.043-.037.042-.033-.001.002c.069-.051.129-.08.178-.095l.03-.006.024-.003h-.006l.02-.001.01-.043.001.041c.038 0 .097.006.17.017.087.014.196.037.328.066l.02.003c.034.01.09.023.147.04.05.012.102.027.157.046l.115.038-.545 2.344zm3.214-6.324a.447.447 0 0 0-.191-.084l-.003-.001-.922-.185-1.214-.338c-.285-.068-.549-.1-.8-.1-.27 0-.527.038-.767.111a2.34 2.34 0 0 0-.52.234l-.004.001-.004.004c-.261.155-.477.35-.644.581-.168.23-.287.496-.356.795h.002a2.006 2.006 0 0 0 .061 1.152c.027.073.056.146.09.216l.002.001c.032.07.07.14.112.21l.001.003a2.83 2.83 0 0 0 .73.8 5.593 5.593 0 0 0-.394.296l-.088.077-.079.073.008.008-.025.016.016-.022a1.993 1.993 0 0 0-.501.822 3.536 3.536 0 0 0-.042.156v.001a1.415 1.415 0 0 0 .042.803c.019.052.038.103.06.151l.002.002c.023.05.05.098.078.145l-.003-.004.005.01c.2.342.524.605.957.786a3.283 3.283 0 0 0 .546.172h.003l.008.002c.055.014.16.034.33.066l.113.023.014.002.018.003c.169.033.318.063.427.087l.06.013.01.002.039.01.023.002 1.023.267-.014-.005a.578.578 0 0 0 .146.023.33.33 0 0 0 .078-.01.25.25 0 0 0 .197-.196l.002-.004v.003c.003-.025.006-.04.006-.056a.245.245 0 0 0-.056-.154.275.275 0 0 0-.149-.09l-.016-.004a1.517 1.517 0 0 1-.321-.11.342.342 0 0 1-.082-.053.21.21 0 0 1-.04-.056l-.016-.024c.015.02.01.002.008-.026l-.001-.04c0-.03.002-.063.004-.102l.002-.01v-.009l-.072-.005h.07c0-.025.007-.079.018-.149.004-.017.01-.04.015-.07l.001-.012.012-.058.004-.013.02-.092.003-.02.025-.102.037-.158.047-.204.067-.28.002-.02.086-.362.122-.53.38-1.64c.087-.374.17-.717.25-1.03l.045-.178a.033.033 0 0 0 .002-.01l.042-.159-.001.004c.076-.284.136-.49.182-.62l.005-.03c.002.007.01-.017.02-.038a.821.821 0 0 1 .107-.202l.012-.02.004-.003.008-.01c-.002.004.003 0 .013-.004a.125.125 0 0 1 .038-.01h.044l.033-.001h-.002l.054-.003c-.008.003.011.008.035.014h.02l.047.014c.02.003.036.006.057.006a.278.278 0 0 0 .154-.048l.014-.01.006-.005.01-.009.016-.012.002-.003.012-.01.02-.019.025-.044.008-.032a.637.637 0 0 0 .007-.063.253.253 0 0 0-.09-.188l-.007-.008zm24.795 5.32a.25.25 0 0 0-.246-.192.392.392 0 0 0-.083.01 1.649 1.649 0 0 1-.349.052v.004c-.004 0-.006.001-.006-.003a.285.285 0 0 1-.118-.022l-.023-.011-.016-.013-.01-.008a.26.26 0 0 1-.055-.075.636.636 0 0 1-.057-.156l-.086-.348-.138-.555-.008-.023-.083-.347-.182-.727-.001-.003.002.021-1.064-4.29.002.022-.03-.124v-.003a.464.464 0 0 0-.092-.196.26.26 0 0 0-.262-.091h-.002l-.005.002a.317.317 0 0 0-.18.123.477.477 0 0 0-.079.165l-.067.16-.522 1.18c-.266.612-.55 1.243-.853 1.894l-.178.382-.183.385a142.686 142.686 0 0 1-1.133 2.32l-.593-2.383-.159-.646a72.493 72.493 0 0 1-.139-.588l.003.02a26.947 26.947 0 0 1-.106-.49 4.49 4.49 0 0 1-.05-.296 1.988 1.988 0 0 1-.012-.187.79.79 0 0 1 .01-.128.178.178 0 0 1 .016-.046.08.08 0 0 1 .02-.019l.255-.1a.258.258 0 0 0 .143-.123l.007-.014.004-.008.003-.007.003-.004.008-.02.003-.009.003-.006.01-.029.004-.05-.01-.033a.253.253 0 0 0-.198-.191l-.019-.002a.15.15 0 0 0-.054-.007.557.557 0 0 0-.135.02l-.008.002-.898.252-.23.047-.213.044h.008a8.721 8.721 0 0 0-.328.071c-.117.027-.244.059-.383.094a.428.428 0 0 0-.187.088.241.241 0 0 0-.086.258l.007.032.027.044.023.022a.348.348 0 0 0 .085.06h.001a.269.269 0 0 0 .18.025h.003l.408-.065a.234.234 0 0 1 .117.014l.013.009h.001l.003.003c.017.017.04.052.067.103.03.056.06.127.093.212l-.006-.03a12.719 12.719 0 0 1 .244.826l.14.553.147.586.407 1.633.636 2.562.01.042.018.062c.03.12.085.22.183.268a.105.105 0 0 0 .012.005c.023.01.049.018.075.02a.355.355 0 0 0 .079-.004h.002-.01a.332.332 0 0 0 .2-.125.488.488 0 0 0 .08-.169c.264-.598.543-1.218.83-1.85l.171-.372.002-.001.173-.375-.016.02c.227-.477.459-.969.714-1.5l.154-.32.001-.002.16-.333.706-1.434.052-.103 1.1 4.414a.798.798 0 0 1 .023.172c0 .077-.018.126-.046.16a.266.266 0 0 1-.079.056l-.21.08a.263.263 0 0 0-.155.11l-.001.001a.228.228 0 0 0-.036.121c-.001.028 0 .048.003.064l.006.018-.004-.008.002.005.002.004v.001l.001.001a.254.254 0 0 0 .182.176l.003.002a.396.396 0 0 0 .08.009.662.662 0 0 0 .114-.013l-.018.001.037-.006h-.002l.9-.253 1.043-.228c.119-.03.212-.082.259-.175a.25.25 0 0 0 .024-.08l.002-.03a.311.311 0 0 0-.006-.052l-.001-.012zm12.938-6.566c-.002-.004-.011-.004-.017-.003h-.006a.305.305 0 0 0-.155.048 1.717 1.717 0 0 1-.319.151.316.316 0 0 1-.099.017.256.256 0 0 1-.068-.012.095.095 0 0 0-.01-.006.228.228 0 0 1-.078-.055l-.002-.001h.001a.612.612 0 0 1-.099-.132l-.285-.474-.194-.322c-.13-.219-.267-.446-.412-.686l-.085-.142-.086-.144-.015-.02-.855-1.426-.34-.57a66.156 66.156 0 0 1-.303-.522l-.002.001v-.002a10.648 10.648 0 0 1-.306-.556c-.017-.03-.028-.054-.036-.071l-.001-.002-.027-.059-.007-.004c-.027-.075-.045-.125-.059-.17a.66.66 0 0 1-.027-.123l-.003-.024c0-.013.002-.02.004-.028a.053.053 0 0 1 .015-.024l.213-.168a.285.285 0 0 0 .097-.15l.002-.01.003-.015.004-.014.002-.018.001-.012v-.005l.003-.039-.013-.052-.017-.03a.25.25 0 0 0-.218-.125.361.361 0 0 0-.105.017l-.035.022c.017-.016.001-.01-.017 0h-.004l-.047.025h-.002l-.011.008-.003.001-.773.497-.18.097-.216.118.002-.001c-.112.062-.239.134-.386.22l-.085.05-.089.053-.005.003.018-.008a.455.455 0 0 0-.17.148.243.243 0 0 0-.007.271l.018.03.065.048a.369.369 0 0 0 .15.037h.015c.023 0 .037-.005.048-.008a.234.234 0 0 0 .051-.017l.01-.007-.002.003.334-.156a.224.224 0 0 1 .096-.025h.01l.017.003.006.003.006.003.003.003a.719.719 0 0 1 .15.14l.046.051.043.057-.009-.013.008.01.001.003.001.004a6.073 6.073 0 0 1 .308.448l.074.116.073.117a.095.095 0 0 0 .013.022l.29.477.313.518.237.395a50.734 50.734 0 0 0-1.262-.38l-.413-.12-.025-.003.016.002a56.46 56.46 0 0 0-1.312-.36 7.625 7.625 0 0 0-.694-.159h-.012a5.756 5.756 0 0 0-.542-.062h-.008a1.822 1.822 0 0 0-.734.113l.032-.005a.836.836 0 0 0-.145.053l-.01.006-.072.032-.001.003v-.002a13.74 13.74 0 0 1-.09.045l-.014.009-.084.047a7.104 7.104 0 0 0-.103.06l-.019.014-.211.125-.42.25a.683.683 0 0 0-.179.143l-.001.003a.258.258 0 0 0-.066.17c0 .043.014.088.038.127l.002.004.001.001.008.012a.234.234 0 0 0 .194.098h.022a.413.413 0 0 0 .163-.053l.002-.003.004-.002.014-.007a1.095 1.095 0 0 1 .113-.05l.031-.012.048-.018.005-.003c.082-.032.156-.056.221-.071l.043-.01-.014.001.047-.008a2.29 2.29 0 0 1 .556-.015h.009c.031.002.071.007.108.012l.115.016h.004l.03.006.016.001c.04.008.143.027.29.058.135.027.333.07.588.123.106.023.324.077.652.16l.204.051.223.058.01.002.012.003.974.251c.262.068.457.122.581.158l.01.002.63.171.166.048c-.023.106-.057.251-.103.435-.08.325-.19.755-.33 1.29l-.205.774-.028.101-.021.083.003-.007-.002.008h-.001l-.002.004a.108.108 0 0 0-.003.02l-.051.194-.087.352v.002a2.356 2.356 0 0 1-.126.322c-.045.1-.1.192-.159.276l.009-.011a1.493 1.493 0 0 1-.258.292c-.017.012-.03.023-.042.033a.012.012 0 0 0-.004.002l-.04.028h-.004a.321.321 0 0 0-.133.142.215.215 0 0 0-.022.101c0 .05.015.095.04.133.038.073.12.121.207.121h.003c.008 0 .019 0 .032-.002a.455.455 0 0 0 .184-.068l-.003.002.78-.5.62-.34v.001l.009-.006h.003a.353.353 0 0 0 .131-.131.277.277 0 0 0 .032-.12.25.25 0 0 0-.214-.244c-.025-.005-.045-.005-.055-.005a.46.46 0 0 0-.08.007l-.01-.02-.004-.004c.002.003.003-.008.003-.008-.002-.016-.002-.03-.002-.049l.003-.07a3.48 3.48 0 0 1 .06-.35l.02-.105.027-.109.003-.016.116-.492.118-.494.095-.414.211-.922.003-.01v-.002-.003c.035-.146.066-.272.09-.378l.067.11a.058.058 0 0 0 .006.01l.278.464.354.588.424.706.002.004a.487.487 0 0 1 .084.241v.021c-.003.047-.027.095-.083.147l-.193.145a.3.3 0 0 0-.108.122l-.003.006a.222.222 0 0 0-.019.093c0 .045.015.088.038.126l.015.02c.029.059.114.11.204.107h.028a.478.478 0 0 0 .195-.072l.003-.001.789-.506c.047-.025.11-.06.178-.095l.21-.116c.103-.056.225-.126.366-.208l.08-.048.086-.05.001-.001a.444.444 0 0 0 .154-.14.287.287 0 0 0 .044-.143.257.257 0 0 0-.037-.13.24.24 0 0 0-.188-.122zm12.607-11.03a.118.118 0 0 0-.006-.015.334.334 0 0 0-.05-.064l-.002-.001-.003-.002a.25.25 0 0 0-.17-.07c-.02 0-.036.004-.049.006a.289.289 0 0 0-.155.096v.001a1.78 1.78 0 0 1-.188.18l-.037.031-.036.025a.32.32 0 0 1-.09.046c-.02.003-.041.007-.058.007l-.021-.001a.254.254 0 0 1-.092-.03.679.679 0 0 1-.132-.097l-.001-.003-.698-.626-.589-.53-.123-.112-.126-.112-.02-.015-3.253-2.932-.017-.016-.063-.055a.5.5 0 0 0-.185-.113.258.258 0 0 0-.275.075l-.014.022a.276.276 0 0 0-.067.172c-.007.022 0 .03-.002.032 0 .053.012.106.029.158l.032.172.23 1.27c.123.658.242 1.34.354 2.045l.066.414.065.42v.004a167.362 167.362 0 0 1 .36 2.557l-1.828-1.647c-.176-.157-.34-.307-.492-.446l-.001-.001c-.158-.145-.305-.28-.44-.407l-.001-.002a13.45 13.45 0 0 1-.35-.331 3.506 3.506 0 0 1-.208-.22l.01.017a1.676 1.676 0 0 1-.159-.218l-.018-.03-.01-.026-.004-.007a.103.103 0 0 1-.01-.043h-.002l.001-.003.008-.021.153-.224a.259.259 0 0 0 .05-.135v-.015-.013a.34.34 0 0 0-.012-.092l-.007-.033-.028-.045-.024-.022a.245.245 0 0 0-.167-.066.287.287 0 0 0-.105.022.454.454 0 0 0-.163.121l-.609.717c-.044.043-.094.095-.148.15l-.178.182c-.065.07-.139.145-.218.232-.081.087-.17.185-.265.29a.45.45 0 0 0-.107.175.234.234 0 0 0-.01.078.246.246 0 0 0 .086.189l.024.02.045.022.033.005c.02 0 .04.003.062.003a.32.32 0 0 0 .117-.02l.03-.02c-.015.011-.005.008.007 0l.028-.025.005-.002.012-.01.31-.288a.225.225 0 0 1 .104-.053h.039c.018.008.085.038.17.091.023.013.04.025.057.036l.061.043h.003l.002.002a10.803 10.803 0 0 1 .643.53h.002c.14.125.282.25.424.378l.45.404 1.251 1.127 1.963 1.766.032.029v-.001l.046.043.001.001c.084.073.171.121.267.122.009 0 .02 0 .038-.002a.241.241 0 0 0 .151-.077l.005-.007.007-.008a.321.321 0 0 0 .075-.215v-.046a.508.508 0 0 0-.01-.054l-.014-.05-.005-.013a166.308 166.308 0 0 1-.35-2.008l-.064-.394-.068-.41v-.004c-.076-.47-.16-1.006-.249-1.61l-.103-.717-.001-.001-.001-.004c-.084-.597-.156-1.122-.217-1.577l-.016-.119 3.384 3.047.002.001c.12.108.166.2.165.266v.021a.283.283 0 0 1-.009.04.458.458 0 0 1-.024.049l-.132.184a.25.25 0 0 0-.057.232.286.286 0 0 0 .024.062c.011.02.024.036.04.051l.002.003.005.004.006.006.003.002a.26.26 0 0 0 .262.047.446.446 0 0 0 .165-.118l.006-.007.002-.003.6-.709.736-.77.006-.009a.39.39 0 0 0 .113-.247l-.002-.03a.266.266 0 0 0-.02-.074zm8.217-14.462l-.005-.003-5.479-3.076-.023-.009a3.63 3.63 0 0 1-.327-.199c-.01-.007-.021-.017-.034-.025l-.01-.01a.038.038 0 0 0-.005-.005l-.014-.01a.312.312 0 0 1-.074-.101.089.089 0 0 1-.01-.039l.002-.016.003-.021c.013-.056.032-.124.054-.186l.014-.036.012-.033a.328.328 0 0 0 .02-.107v-.033l-.002-.01a.385.385 0 0 0-.009-.052v-.001l-.004-.022-.012-.054-.053-.064-.052-.02-.003-.001-.004-.003a.27.27 0 0 0-.099-.018.254.254 0 0 0-.167.062.448.448 0 0 0-.124.176v.002l-.002.005-.29.75-.37.799v.001a.481.481 0 0 0-.05.2c0 .02.003.024.003.025 0 .094.064.19.16.228l.045.02.075-.002.044-.023.018-.009h.002l.016-.01h.004a.304.304 0 0 0 .068-.047.226.226 0 0 0 .061-.088.817.817 0 0 1 .02-.04v-.003l.04-.076a2.43 2.43 0 0 1 .083-.135l.005-.006.027-.039.027-.038a.142.142 0 0 0 .005-.007l.005-.028v.027a.25.25 0 0 1 .085.024v-.001l.438.198 3.34 1.77-.366.01c-.83.024-1.4.044-1.71.056h.003l-.16.006h.002l-.099.004h.003l-.02.002.008-.001-2.484.163-.01.002c-.1.01-.178.019-.256.029l-.083.008a.818.818 0 0 0-.168.034.266.266 0 0 0-.171.143.232.232 0 0 0-.022.104c0 .073.029.143.075.212l.032.045.002.003.035.043.004.003.002.001.122.14.122.144.006.006 3.172 3.588-4.042-1.29a.895.895 0 0 0-.138-.035l-.064-.03-.014-.002a.386.386 0 0 0-.01-.064c-.023-.087-.07-.14-.131-.165a.225.225 0 0 0-.094-.02c-.118.003-.207.08-.285.191-.013.017-.024.036-.039.06a.085.085 0 0 0-.005.007l-.041.072-.005.009-.003.006-.001.003-.246.577-.384.897a.612.612 0 0 0-.054.225.258.258 0 0 0 .16.252v-.001h.001l.018.008.012.003a.233.233 0 0 0 .2-.035.299.299 0 0 0 .099-.128v-.002-.002a4.135 4.135 0 0 1 .12-.246 1.41 1.41 0 0 1 .11-.167l.03-.035.033-.04v-.002a.378.378 0 0 1 .235-.123.432.432 0 0 1 .07-.007.237.237 0 0 1 .077 0h.017c.05.004.124.014.212.034.09.019.196.045.313.079l.006.002 5.663 1.708a.882.882 0 0 0 .248.043.48.48 0 0 0 .07-.004l.004-.002a.278.278 0 0 0 .157-.087.344.344 0 0 0 .038-.058l.005-.015a.31.31 0 0 0-.01-.23.573.573 0 0 0-.116-.166l-4.155-4.627 6.28-.318a.47.47 0 0 0 .255-.07.216.216 0 0 0 .05-.043l.016-.021c0 .004.015-.013.026-.035l.006-.013.002-.003.004-.008a.289.289 0 0 0 .02-.105.28.28 0 0 0-.054-.162.551.551 0 0 0-.159-.141zm2.831-13.29c-.04.373-.146.707-.318 1.001a2.545 2.545 0 0 1-.721.781c-.333.243-.71.41-1.133.504-.273.059-.563.09-.873.09-.18 0-.366-.01-.56-.03-.589-.062-1.087-.198-1.497-.404a2.635 2.635 0 0 1-.433-.269l-.005-.003a2.15 2.15 0 0 1-.703-.898l.006.034-.073-.211.002.013v-.001a2.816 2.816 0 0 1-.11-.51 2.074 2.074 0 0 1 0-.505c.062-.589.277-1.083.644-1.49a2.773 2.773 0 0 1 .503-.437l-.01.006.018-.012a3.18 3.18 0 0 1 1.158-.494c.27-.06.562-.087.871-.087.183 0 .374.01.57.03.49.052.912.16 1.27.324.351.161.64.377.87.647l.001.001c.215.252.365.535.453.853.058.216.089.451.089.703 0 .118-.006.24-.019.364zm.549-1.591a3.607 3.607 0 0 0-.88-1.423 4.135 4.135 0 0 0-1.13-.823c-.411-.2-.857-.325-1.332-.376l-.01-.001a4.924 4.924 0 0 0-.5-.026c-.54 0-1.048.095-1.523.288a3.913 3.913 0 0 0-.698.369l-.002.001v.001h-.003a3.47 3.47 0 0 0-1.407 1.852 4.498 4.498 0 0 0-.207.979v.006a4.215 4.215 0 0 0 .133 1.636c.15.508.41.972.774 1.392.5.58 1.12.984 1.852 1.21a5.197 5.197 0 0 0 .902.182h.011-.005c.174.019.345.028.513.028.61 0 1.167-.126 1.662-.38.123-.062.242-.134.356-.21.113-.079.225-.165.332-.259l-.035.02.04-.022.004-.005c.54-.474.921-1.08 1.136-1.804a5.098 5.098 0 0 0 .175-.897v-.003a5.11 5.11 0 0 0 .028-.518c0-.432-.062-.84-.186-1.217zm-6.347-16.747c-.192.036-.39.071-.594.108-.262.046-.47.079-.62.097l-.083.01a.815.815 0 0 1-.065.004l-.009.002a2.343 2.343 0 0 1-.243-.002h-.01a.154.154 0 0 0-.024-.004c-.013-.003-.022-.006-.031-.007h-.003a.152.152 0 0 1-.05-.021.076.076 0 0 1-.015-.02l-.084-.252a.254.254 0 0 0-.078-.126l-.02-.013a.268.268 0 0 0-.087-.051l-.03-.013-.05-.005-.032.006c-.13.02-.218.144-.213.276v.002.01c0 .014 0 .03.002.046v-.01l.008.062-.001-.015.003.023v-.001l.206.915.032.21.037.251.016.036c0 .056.018.16.038.277.023.129.049.257.073.386l-.002-.017.003.023.008.024a.37.37 0 0 0 .069.161.254.254 0 0 0 .204.106l.041-.003.011-.002h-.001l.031-.005.046-.025.025-.023a.318.318 0 0 0 .1-.202l-.061-.013h.062c0-.007 0-.016-.002-.029v-.001-.001l-.002-.017-.042-.408v-.017a.24.24 0 0 1 .01-.08.066.066 0 0 1 .021-.035l.007-.005a.546.546 0 0 1 .1-.06c.057-.025.128-.053.218-.08.094-.03.207-.06.337-.091.134-.033.292-.067.472-.103.136-.028.322-.066.561-.112.204-.041.4-.078.593-.116l.747-.144.72 3.707-.746.144c-.246.048-.463.088-.656.124-.21.04-.402.074-.58.107h-.013a13.23 13.23 0 0 1-.621.098l-.083.01.01-.002-.077.007h-.007a2.214 2.214 0 0 1-.118.004 1.02 1.02 0 0 1-.125-.006h-.01l-.025-.005-.032-.006-.004-.001a.116.116 0 0 1-.048-.02.063.063 0 0 1-.013-.02l-.085-.252a.268.268 0 0 0-.117-.154l-.026-.016-.016-.007-.01-.006-.01-.005-.008-.002-.027-.011-.052-.005-.032.006-.008.003.007-.002a.25.25 0 0 0-.197.182.272.272 0 0 0-.014.1c0 .031.003.064.009.096l-.002-.014.004.029v-.002l.207.918.031.206v.001l.04.251v-.012c.013.104.031.207.054.325.021.129.047.257.07.387.022.115.07.21.16.263l.007.002c.018.012.044.02.072.026h.005v.001c.01.001.024.003.041.003.01 0 .023 0 .034-.002l-.007.001.017-.002.035-.006.049-.025.025-.026a.331.331 0 0 0 .091-.15.303.303 0 0 0 .007-.046l-.03-.018h.03v-.029l-.003-.008-.042-.417v-.022c0-.043.006-.072.015-.09l.009-.013.01-.01.002-.002a.748.748 0 0 1 .196-.099l.052-.019c.018-.004.042-.013.07-.022l-.025.004.029-.005a95.421 95.421 0 0 1 1.96-.422l1.656-.32.576-.11.638-.123.003-.002.573-.11.241-.047a.703.703 0 0 1 .145-.016c.092 0 .147.023.183.058.012.01.02.022.03.036a.623.623 0 0 1 .025.048l.073.23c.01.05.037.102.08.14.044.042.103.065.163.064.01 0 .024 0 .041-.003h.006l.006-.002.015-.002-.024.003a.261.261 0 0 0 .21-.189.402.402 0 0 0 .011-.096.585.585 0 0 0-.01-.102l.002.014-.003-.022-.002-.008-.205-.907-.176-1.06-.001-.005a.455.455 0 0 0-.078-.19.257.257 0 0 0-.203-.108c-.02 0-.04.005-.056.008l-.01.002a.254.254 0 0 0-.192.248c0 .025.004.046.007.066l-.001-.017c.013.079.021.136.028.188l.002.021v.013c.004.046.006.087.006.124V52.144a.262.262 0 0 1-.03.12l-.014.022-.013.017-.004.004a.249.249 0 0 1-.08.055.646.646 0 0 1-.159.047l-.47.092.016-.003-.528.102-.634.122-.519.1-.06.012-.72-3.708.062-.012.83-.16.201-.038.214-.042.008-.002.863-.166h-.015l.033-.004a.696.696 0 0 1 .144-.016c.054 0 .098.009.13.022a.2.2 0 0 1 .109.12l.072.228a.28.28 0 0 0 .08.142l.001.002a.241.241 0 0 0 .22.057.256.256 0 0 0 .196-.188.41.41 0 0 0 .013-.097.55.55 0 0 0-.011-.108l-.004-.015-.204-.9-.176-1.06-.003-.013v.01a.421.421 0 0 0-.08-.198l-.006-.008a.245.245 0 0 0-.24-.088l-.005.001a.247.247 0 0 0-.206.246.338.338 0 0 0 .011.079v.002a3.826 3.826 0 0 1 .024.171l.004.042.003.097v.033a.265.265 0 0 1-.041.138l-.016.021-.007.008a.273.273 0 0 1-.076.05.669.669 0 0 1-.16.048c-.286.056-.578.114-.9.175l-.022.004-.135.027-.969.186-1.66.322c-.244.047-.465.088-.654.123zm-5.882-12.305c.153-.388.38-.74.686-1.058a4.55 4.55 0 0 1 1.163-.852c.603-.32 1.162-.477 1.676-.477h.045a2.26 2.26 0 0 1 .593.086h.005l.02.003-.019-.002c.46.132.846.386 1.163.775a3.267 3.267 0 0 1 .343.523l.001.002a2.464 2.464 0 0 1 .303 1.163c0 .291-.054.59-.164.895-.203.555-.568 1.037-1.103 1.449-.106.08-.217.158-.334.232-.114.074-.24.147-.374.217l-.001.001c-.523.277-1.01.443-1.462.501a2.82 2.82 0 0 1-.26.02l-.099.003c-.052 0-.102-.001-.153-.005h-.015a2.171 2.171 0 0 1-1.23-.457l-.002-.001-.007-.006a2.384 2.384 0 0 1-.648-.767 2.644 2.644 0 0 1-.326-1.243c0-.327.066-.66.199-1.002zm-.912-.883l.007-.015-.009.018a3.435 3.435 0 0 0-.258 1.6c.042.543.213 1.094.51 1.65.276.52.62.949 1.028 1.284.409.335.884.576 1.42.72.352.095.703.144 1.056.144.386 0 .773-.057 1.157-.173a4.932 4.932 0 0 0 .85-.354v-.001h.003l.004-.003.008-.005c.723-.385 1.258-.886 1.598-1.501a3.324 3.324 0 0 0 .307-.774l.002-.002a3.87 3.87 0 0 0 .12-.943c0-.395-.064-.793-.19-1.193a5.194 5.194 0 0 0-.354-.838l.006.033-.009-.037.003.003-.001-.002-.002-.002v-.003c-.427-.803-1.004-1.385-1.722-1.734a3.76 3.76 0 0 0-.904-.302h-.004a3.772 3.772 0 0 0-1.398-.05 3.963 3.963 0 0 0-1.324.437c-.648.344-1.16.794-1.533 1.347a3.942 3.942 0 0 0-.371.696zm-8.404-8.354v.002l.167.178-.008-.009a11.457 11.457 0 0 0 .459.475c.078.078.163.129.26.129h.02a.273.273 0 0 0 .086-.022.281.281 0 0 0 .064-.043l.03-.027.027-.047.007-.035a.465.465 0 0 0 .009-.08l-.002-.041a.265.265 0 0 0-.071-.149l-.224-.275c-.037-.047-.051-.087-.051-.11l-.005-.002.001-.003h.003a.44.44 0 0 1 .004-.015v-.007a.541.541 0 0 1 .052-.105c.03-.052.076-.115.134-.187l-.006.007c.067-.083.143-.171.235-.272.092-.1.203-.216.334-.349.13-.132.264-.268.402-.405l.427-.427.001-.002.326-.325c-.016.248-.032.553-.049.914l-.016.388-.015.43v.018c-.02.563-.03 1.018-.032 1.361-.003.074-.003.144-.003.207 0 .236.006.4.017.504.018.174.035.316.052.427v-.013l.01.075v-.012l.01.07v.003-.013c0 .007.002.013.003.02l.011.024-.01-.022a1.792 1.792 0 0 0 .365.788l-.001-.002c.003.006.008.01.013.015.02.024.04.052.067.082l.006.006.012.014-.006-.008.024.03.014.013h.002c.02.026.06.065.102.11l.023.023v.001l.025.025.004-.004-.004.005.19.189.345.345c.064.063.121.11.181.137.04.018.083.03.128.03h.004a.24.24 0 0 0 .168-.073h.001c.041-.043.07-.101.069-.165a.277.277 0 0 0-.016-.092.427.427 0 0 0-.101-.147l-.002-.002a1.59 1.59 0 0 1-.255-.373l-.02-.04-.011-.028v-.001a2.312 2.312 0 0 1-.12-.38 2.812 2.812 0 0 1-.063-.42v.007a65.686 65.686 0 0 1-.04-.918c-.003-.075-.003-.209-.003-.395 0-.188.001-.433.004-.732.003-.403.006-.739.01-1.008.003-.266.007-.468.011-.602v-.005c.007-.372.013-.65.02-.83.11-.003.259-.005.448-.005h.109c.313 0 .723.002 1.224.009h.002c.32.003.576.006.769.01l.11.002.093.001h.031l.196.002h.379c.12.005.237.02.35.042.108.022.21.05.304.087l.033.006c.104.047.215.105.302.168.015.012.03.024.043.037l.001-.002.001.003a.604.604 0 0 1 .039.035l.005-.005h.001l-.005.006a.3.3 0 0 0 .209.095.393.393 0 0 0 .055-.005.24.24 0 0 0 .117-.061l.007-.005.002-.003.002-.002.011-.012a.247.247 0 0 0 .044-.254.438.438 0 0 0-.102-.15l-.007-.01-.006-.005-.664-.625-.483-.521-.008-.009a.366.366 0 0 0-.158-.097.24.24 0 0 0-.244.065v.002l-.002.001a.224.224 0 0 0-.062.212.474.474 0 0 0 .03.114v.003l-.011.012-.003.001a.218.218 0 0 1-.05.015l.021-.002a.436.436 0 0 0-.055.01l-.04.008h-.002a3.147 3.147 0 0 1-.337.028l-.101.003-.11.002-.043.002-.507.005-.51.008-.69.012-.692.013-.393.004.088-.088.392-.392c.147-.145.309-.307.486-.485.322-.32.512-.51.572-.568l.014-.014c.09-.09.17-.136.23-.147a.134.134 0 0 1 .032-.003c.039 0 .083.014.135.048l.191.152a.272.272 0 0 0 .188.078.24.24 0 0 0 .173-.076h.001a.26.26 0 0 0 .06-.265l-.001-.001a.441.441 0 0 0-.118-.173l-.001-.002-.68-.64-.137-.15-.004-.005-.16-.173c-.082-.088-.18-.189-.292-.303l-.064-.066-.001-.001-.068-.07-.004.004-.004-.007a.43.43 0 0 0-.173-.116.24.24 0 0 0-.25.051.071.071 0 0 0-.022.022l-.001.002a.213.213 0 0 0-.066.16.28.28 0 0 0 .09.198v.002a1.422 1.422 0 0 1 .224.271v.002a.25.25 0 0 1 .046.12c-.002.01 0 .02 0 .02v.01l-.002.02-.001.01v.006a.361.361 0 0 1-.036.075.716.716 0 0 1-.103.129l-.664.66-.516.515-.284.282.005.004-.002.002-.003-.005-1.192 1.189h-.001c-.237.235-.459.455-.668.66l-.12.116-.116.112-.004.003-.007.008a13.165 13.165 0 0 1-.466.431l-.052.044a1.544 1.544 0 0 1-.259.178l-.034.016c-.007.002-.017.007-.026.009l-.01.005-.024.017c.01-.014-.009-.011-.016-.011h-.009a.05.05 0 0 1-.02-.009l-.207-.159a.241.241 0 0 0-.138-.06.41.41 0 0 0-.119.005l-.034.006-.045.023-.024.023-.008.01c0-.002.001-.003.003-.005l-.005.006v.001a.234.234 0 0 0-.067.166c0 .032.006.06.015.087.02.06.056.114.108.167l.024.017-.016-.01.003.004.667.627.14.15zM80.996 18.55c.005.013.012.025.02.038l.002-.001.003.008v.001l.002.003c.046.084.125.178.234.281.105.1.24.21.403.334.235.176.48.34.73.493l.151.088.154.087-.02-.015c.654.366 1.301.545 1.954.545a3.696 3.696 0 0 0 1.182-.193l.006-.002-.027.005a3.957 3.957 0 0 0 1.377-.758c.392-.332.727-.75 1.003-1.244l-.076-.043.076.042c.276-.497.444-.995.502-1.493a3.46 3.46 0 0 0-.157-1.487l.006.028a3.62 3.62 0 0 0-.736-1.297v-.002a4.633 4.633 0 0 0-1.24-.972c-.342-.19-.67-.34-.983-.447l-.028-.005a1.338 1.338 0 0 0-.154-.053 3.79 3.79 0 0 0-.18-.05l.007.003-.022-.005a3.935 3.935 0 0 0-.774-.1h-.006H84.396a.415.415 0 0 0-.251.078l-.003.002a.355.355 0 0 0-.086.088.565.565 0 0 0-.03.047 9.495 9.495 0 0 0-.184.355l-.041.087.006-.01-.051.104v.001c-.08.167-.14.29-.178.372v.002l-.023.046v.002l-.01.025a.503.503 0 0 0-.053.18v.007c-.004.005-.002.02-.002.027 0 .052.011.104.033.15l.04.085c.018.04.063.059.105.046l.09-.028.008-.002.007-.001a.308.308 0 0 0 .216-.163 1.565 1.565 0 0 1 .214-.308l.003-.001c.053-.059.104-.106.15-.14l.026-.016a1.123 1.123 0 0 1 .548-.15l.02-.001c.03 0 .063 0 .096.003l.12.012.004.002c.215.03.443.099.68.205.046.02.093.043.14.066.048.025.097.05.144.076a.012.012 0 0 0 .004.002l.002.001a.058.058 0 0 0 .017.006c.423.246.733.55.95.927a2.723 2.723 0 0 1 .228.513 2.93 2.93 0 0 1 .045 1.541 3.948 3.948 0 0 1-.15.505l-1.615-.894-.34-.19a2.098 2.098 0 0 1-.286-.187l-.007-.007-.022-.014a.323.323 0 0 1-.099-.08l-.029-.023c.028.02.022.013.017.005l-.017-.023.004.004-.065-.104a.283.283 0 0 0-.092-.097l-.002.001-.003-.006h-.001a.29.29 0 0 0-.138-.037.145.145 0 0 0-.031.004l.013-.002a.273.273 0 0 0-.177.083 1.223 1.223 0 0 0-.068.08l-.001.003-.009.009-.01.015a14.058 14.058 0 0 0-.329.358l.01-.01c-.115.13-.194.219-.246.282-.06.072-.095.115-.117.154l.015-.02a.282.282 0 0 0-.048.155c0 .038.007.076.018.114l.014.042.04.05.04.023c.038.02.08.032.126.032a.33.33 0 0 0 .144-.037v-.001a.2.2 0 0 0 .03-.017.075.075 0 0 0 .022-.016v-.001c-.002.003.01-.004.024-.015L84 16.71l-.008.008.026-.02.07-.046-.026.012c.055-.032.08-.049.106-.064.028-.017.055-.032.08-.045l.002-.001a.474.474 0 0 1 .205-.058l.009-.002v.002l.031.001h.008l.024.003.008.002h.004c.074.012.193.054.344.13.03.014.062.029.097.048.024.011.058.03.101.053l.006.004.926.514.91.504c-.009.021-.019.043-.032.065-.35.63-.744 1.089-1.178 1.381a2.38 2.38 0 0 1-.52.266l.014-.003-.047.024-.001.001a2.377 2.377 0 0 1-.694.107c-.23 0-.464-.036-.704-.111a3.021 3.021 0 0 1-.596-.26l-.005-.002a4.298 4.298 0 0 1-.746-.503c-.032-.03-.065-.06-.095-.091a1.6 1.6 0 0 1-.08-.086v-.002a1.08 1.08 0 0 1-.238-.452.886.886 0 0 1-.021-.196c0-.093.014-.189.043-.289l.124-.317a.341.341 0 0 0 .04-.15v-.01a.245.245 0 0 0-.125-.204.253.253 0 0 0-.13-.041.293.293 0 0 0-.213.108v.002h-.001a.375.375 0 0 0-.033.038l-.001.003c-.007.01-.02.025-.03.043v.002l-.121.174.01-.012-.15.217-.001.002c-.075.109-.15.226-.223.352l.014-.017-.057.092-.006.013-.038.066-.006.011.003-.006a1.541 1.541 0 0 0-.108.227l-.003.012a.166.166 0 0 0-.01.034.3.3 0 0 0-.008.038l-.002.007v.014c-.004.006-.004.028-.004.046 0 .045.012.088.026.131.01.042.016.056.025.072zM65.114 10.56l.883-1.972.504 2.118-1.387-.146zm2.474 3.808h-.011a1.224 1.224 0 0 1-.243-.052c-.1-.035-.183-.115-.188-.226v-.005l.001-.015v-.001l.002-.014a.222.222 0 0 1 .074-.142.407.407 0 0 1 .068-.05l.02-.015-.001-.033-.619-2.349-1.907-.201-.721 1.56-.003.007.004-.027-.008.037a1.792 1.792 0 0 0-.08.18c-.056.142-.09.267-.102.378v.004s0 .01.003.017c0 0 .003.007.013.015l.004.002.014.012.015.01.006.002a.289.289 0 0 0 .107.032l.092.01a.33.33 0 0 1 .167.058l.003.001a.242.242 0 0 1 .095.191l-.001.024-.001.014v.005l-.002.01a.253.253 0 0 1-.16.193.387.387 0 0 1-.142.024l-.033-.002h-.01l-.022-.001h-.003l-.737-.108h-.004l-.068-.007h-.002l-.065-.007a9.686 9.686 0 0 0-.373-.03h-.007l-.283-.021-.27-.019h-.007l-.012-.002a.521.521 0 0 1-.19-.055.253.253 0 0 1-.143-.226v-.01l.003-.015v-.003a.24.24 0 0 1 .127-.193.295.295 0 0 1 .169-.03l.01.002.255.028.017-.001.075-.007h-.012a.531.531 0 0 0 .3-.16l.002-.002.006-.008.031-.034.006-.009.044-.053c.077-.108.163-.25.252-.43l2.787-5.69.001-.002.047-.087-.016.023.027-.056.001-.003c.05-.096.086-.162.12-.207h.001a.345.345 0 0 1 .1-.091.27.27 0 0 1 .313.026l.001.002a.355.355 0 0 1 .087.11l.004.007.012.027.003.005.01.032a3.04 3.04 0 0 1 .08.278l.178.676c.063.24.126.469.184.679l.003.013-.001-.003.112.424.105.398c.169.638.316 1.18.44 1.649l-.003-.022a156.938 156.938 0 0 0 .59 2.135c.054.185.112.345.172.48.058.133.118.242.181.33v-.001a.867.867 0 0 0 .072.088.44.44 0 0 0 .132.11c.043.018.081.034.113.044l.1.03-.018-.007c.025.006.052.01.078.014v.001h.001l.075.01h.01c.062.007.12.026.167.062.06.044.098.117.096.192v.025h-.087l.084.019v.01a.244.244 0 0 1-.11.155.388.388 0 0 1-.212.055.782.782 0 0 1-.08-.005l-.013-.001-1.49-.185-.012-.002zm9.163-3.365a1.304 1.304 0 1 1-.727 2.505 1.303 1.303 0 0 1-.891-1.614c.199-.692.924-1.09 1.618-.89zm-16.512 99.32a1.305 1.305 0 1 1-.728 2.505 1.304 1.304 0 1 1 .728-2.505zM11.95 43.159a1.305 1.305 0 1 1-.726 2.506 1.304 1.304 0 1 1 .726-2.506zM60 102.941c-23.716 0-42.941-19.225-42.941-42.941S36.284 17.059 60 17.059 102.941 36.284 102.941 60 83.716 102.941 60 102.941zm-3.05-72.084H42.19l1.701 3.323 14.417.006c2.137 0 5.38.473 7.673 3.32 1.192 1.444 1.927 2.913 2.183 4.835H58.158v2.845h10.095c-.078 1.836-.455 3.892-2.251 6.073-1.581 1.98-4.18 3.815-7.851 3.815-1.214 0-2.105-.08-2.71-.163v2.896c1.359.147 4.083.312 7.77-.135 5.394-.644 8.144-3.4 9.727-5.297 2.134-2.45 3.006-5.457 3.006-8.304 0-2.295-.637-6.882-4.667-10.042-2.77-2.137-5.22-3.167-11.07-3.167h-2.962a7.378 7.378 0 0 0-.294-.005zM42.948 88.55H81.39l-1.781-3.465v-7.608c0-9.052-3.543-15.922-10.621-18.555l-3.42 1.257c5.87 3.748 6.14 11.006 6.14 16.222v8.608h-6.29V66.116h-7.26v18.912h-5.56v-48.42H44.73v48.473l-1.784 3.468z"/>
    </g>
</svg>
