<svg id="Слой_1" data-name="Слой 1" xmlns="http://www.w3.org/2000/svg" viewBox="0 0 65.58 37.94"><defs><style>.cls-1{fill:none;stroke:#000;stroke-miterlimit:10;stroke-width:2px;}</style></defs><title>иконки</title><path class="cls-1" d="M2.49,6.69a4,4,0,0,1-.42-2.17A3.3,3.3,0,0,1,2.4,3.36c.54-.9,1.91-.77,5.88-.71,3.29.05,4.75,0,6.46,1,.32.19.57.37.75.5q3.58,6.45,7.16,12.92c1.12,1.25,2,1.78,2.71,1.58q2-.6,1.54-9.71c-.09-2.16-.78-3.2-1.45-3.75-1-.82-2.28-.8-2.38-1.44S24,2.52,24.36,2.32c1.7-1,3.46-1.06,6.05-.94,6.5.28,7.26,1.05,7.6,1.52a4,4,0,0,1,.61,2.63c-.08,1.31,0,5.45.15,11.16.06,1,.54,1.83,1.15,2a1.7,1.7,0,0,0,1.16-.33,3.21,3.21,0,0,0,1.15-1.12c3.14-5.5,5.55-9.5,6.3-10.93a6.41,6.41,0,0,1,2-2.29,5.52,5.52,0,0,1,.79-.46A37.79,37.79,0,0,1,57.07,3,37.37,37.37,0,0,1,64,3.63a2.21,2.21,0,0,1,.54.81A2.92,2.92,0,0,1,64,6.86c-.83,1.49-4.46,6.57-9.58,13.29a3,3,0,0,0-.34,1.46,4,4,0,0,0,.67,1.83c.67,1,4.15,4.84,9.08,9.9a2.15,2.15,0,0,1,.27,2.35,2,2,0,0,1-1.27,1q-3,.12-6.12.19c-1.77,0-3.52.06-5.25.08a3.35,3.35,0,0,1-1.11-.21,4.15,4.15,0,0,1-.93-.52c-.21-.15-.63-.42-1.05-.77A22.5,22.5,0,0,1,46,32.93l-3.21-3.57a1.77,1.77,0,0,0-2.17-.84,1.75,1.75,0,0,0-1,1.71c0,1.49,0,3,.08,4.46a2.3,2.3,0,0,1-.91,1.67,2.1,2.1,0,0,1-.88.33l-9.95,0a6.18,6.18,0,0,1-1.34-.28A5.67,5.67,0,0,1,25.47,36a18,18,0,0,1-1.65-.88,33.53,33.53,0,0,1-7.43-6.21,42.7,42.7,0,0,1-4-5q-1.66-2.37-3.35-5-1.23-1.87-2.35-3.7S6,14.1,2.49,6.69Z"/></svg>